<svg width="80" height="83" viewBox="0 0 80 83" fill="none" xmlns="http://www.w3.org/2000/svg">
<path d="M65.6571 35.8287H14.3908C12.5914 35.8287 11.1277 34.3656 11.1277 32.5669V22.7944C11.1277 20.9956 12.5914 19.5319 14.3908 19.5319H65.6564C67.4552 19.5319 68.9183 20.9956 68.9183 22.7944V32.5675C68.9189 34.3656 67.4558 35.8287 65.6571 35.8287ZM14.3908 22.0319C13.9771 22.0319 13.6277 22.3812 13.6277 22.7944V32.5675C13.6277 32.9875 13.9702 33.3294 14.3908 33.3294H65.6564C66.0764 33.3294 66.4183 32.9875 66.4183 32.5675V22.7944C66.4183 22.3806 66.0689 22.0319 65.6564 22.0319H14.3908Z" fill="white"/>
<path d="M58.5075 69.3075H21.5375C18.0737 69.3075 15.2556 66.49 15.2556 63.0256V34.5787C15.2556 33.8887 15.8156 33.3287 16.5056 33.3287C17.1956 33.3287 17.7556 33.8887 17.7556 34.5787V63.0256C17.7556 65.1112 19.4525 66.8075 21.5375 66.8075H58.5075C60.5919 66.8075 62.2881 65.1112 62.2881 63.0256V34.5787C62.2881 33.8887 62.8481 33.3287 63.5381 33.3287C64.2281 33.3287 64.7881 33.8887 64.7881 34.5787V63.0256C64.7881 66.49 61.9706 69.3075 58.5075 69.3075Z" fill="white"/>
<path d="M40.0232 69.3075C39.3332 69.3075 38.7732 68.7481 38.7732 68.0575V34.5787C38.7732 33.8887 39.3332 33.3287 40.0232 33.3287C40.7132 33.3287 41.2732 33.8887 41.2732 34.5787V68.0569C41.2732 68.7481 40.7138 69.3075 40.0232 69.3075Z" fill="white"/>
<path d="M24.4218 22.0276C20.5093 19.9076 19.0493 15.0001 21.1674 11.0869C23.2843 7.17568 28.1911 5.71505 32.1055 7.8313C38.0686 11.0613 41.2886 20.0726 41.4224 20.4544L39.0643 21.2838C39.0343 21.1988 36.0261 12.7982 30.9161 10.0301C28.213 8.5688 24.8268 9.57755 23.3661 12.2769C21.9043 14.9788 22.9118 18.3663 25.6136 19.8294L24.4218 22.0276Z" fill="white"/>
<path d="M55.6218 22.0275L54.4318 19.8287C55.7411 19.1194 56.6955 17.9437 57.1205 16.5181C57.5449 15.0919 57.388 13.5856 56.6786 12.2775C55.9711 10.9681 54.7961 10.0144 53.3705 9.58998C51.9443 9.16561 50.4393 9.32186 49.1305 10.03C44.0205 12.7975 41.0124 21.1981 40.9824 21.2831L38.6243 20.4537C38.758 20.0719 41.9774 11.0606 47.9405 7.83123C49.8355 6.80498 52.0186 6.57873 54.0836 7.19373C56.1505 7.80811 57.8524 9.19123 58.878 11.0869C59.9049 12.9819 60.1318 15.1637 59.5168 17.2306C58.9011 19.2969 57.518 21 55.6218 22.0275Z" fill="white"/>
<path d="M63.5381 52.5687H16.5056C15.8156 52.5687 15.2556 52.0087 15.2556 51.3187C15.2556 50.6287 15.8156 50.0687 16.5056 50.0687H63.5381C64.2281 50.0687 64.7881 50.6287 64.7881 51.3187C64.7881 52.0087 64.2287 52.5687 63.5381 52.5687Z" fill="white"/>
</svg>
